<svg width="26" height="24" viewBox="0 0 26 24" fill="none" xmlns="http://www.w3.org/2000/svg">
<path d="M15.7032 18V18.75C15.7032 19.5456 15.3723 20.3087 14.7834 20.8713C14.1944 21.4339 13.3955 21.75 12.5626 21.75C11.7297 21.75 10.9308 21.4339 10.3418 20.8713C9.75286 20.3087 9.42197 19.5456 9.42197 18.75V18M20.9873 16.4733C19.7271 15 18.8375 14.25 18.8375 10.1883C18.8375 6.46875 16.8491 5.14359 15.2125 4.5C14.9951 4.41469 14.7905 4.21875 14.7242 4.00547C14.4372 3.07219 13.6324 2.25 12.5626 2.25C11.4928 2.25 10.6875 3.07266 10.4034 4.00641C10.3372 4.22203 10.1325 4.41469 9.91515 4.5C8.27663 5.14453 6.29018 6.465 6.29018 10.1883C6.28773 14.25 5.39805 15 4.13787 16.4733C3.61574 17.0836 4.0731 18 4.98633 18H20.1438C21.0521 18 21.5065 17.0808 20.9873 16.4733Z" stroke="black" stroke-width="1.5" stroke-linecap="round" stroke-linejoin="round"/>
</svg>
