<svg width="current" height="current" viewBox="0 0 21 21" fill="none" xmlns="http://www.w3.org/2000/svg">
<path fill-rule="evenodd" clip-rule="evenodd" d="M12.3881 2.40405C11.932 0.532023 9.26796 0.532023 8.81194 2.40405C8.74386 2.68536 8.61033 2.94661 8.4222 3.16656C8.23407 3.3865 7.99668 3.55893 7.72932 3.6698C7.46197 3.78066 7.17222 3.82685 6.88365 3.80458C6.59508 3.78232 6.31584 3.69224 6.06866 3.54167C4.42221 2.53845 2.53815 4.42248 3.54138 6.06891C4.1894 7.13213 3.61458 8.51935 2.40494 8.81335C0.531685 9.26816 0.531685 11.9334 2.40494 12.387C2.68633 12.4552 2.94763 12.5888 3.16758 12.7771C3.38753 12.9654 3.55991 13.2029 3.67067 13.4704C3.78144 13.7379 3.82746 14.0278 3.80499 14.3164C3.78252 14.6051 3.6922 14.8843 3.54138 15.1315C2.53815 16.7779 4.42221 18.6619 6.06866 17.6587C6.31579 17.5079 6.59506 17.4176 6.88371 17.3951C7.17235 17.3726 7.46223 17.4186 7.72973 17.5294C7.99722 17.6402 8.23478 17.8125 8.42305 18.0325C8.61132 18.2524 8.74498 18.5137 8.81314 18.7951C9.26796 20.6683 11.9332 20.6683 12.3869 18.7951C12.4553 18.5139 12.589 18.2528 12.7774 18.033C12.9657 17.8132 13.2032 17.6409 13.4706 17.5302C13.738 17.4194 14.0278 17.3734 14.3163 17.3957C14.6049 17.418 14.8841 17.5081 15.1313 17.6587C16.7778 18.6619 18.6619 16.7779 17.6586 15.1315C17.5081 14.8843 17.418 14.605 17.3956 14.3165C17.3733 14.0279 17.4194 13.7381 17.5301 13.4707C17.6408 13.2033 17.8131 12.9658 18.0329 12.7775C18.2527 12.5892 18.5138 12.4554 18.7951 12.387C20.6683 11.9322 20.6683 9.26696 18.7951 8.81335C18.5137 8.74519 18.2524 8.61153 18.0324 8.42326C17.8125 8.23499 17.6401 7.99744 17.5293 7.72995C17.4186 7.46246 17.3725 7.17259 17.395 6.88394C17.4175 6.5953 17.5078 6.31604 17.6586 6.06891C18.6619 4.42248 16.7778 2.53845 15.1313 3.54167C14.8842 3.69249 14.6049 3.78281 14.3163 3.80528C14.0276 3.82774 13.7378 3.78172 13.4703 3.67096C13.2028 3.5602 12.9652 3.38782 12.777 3.16788C12.5887 2.94793 12.455 2.68663 12.3869 2.40525L12.3881 2.40405Z" stroke="#666666" stroke-width="1.3"/>
<path d="M12.7333 10.6C12.7333 11.7782 11.7782 12.7334 10.6 12.7334C9.42179 12.7334 8.46667 11.7782 8.46667 10.6C8.46667 9.42182 9.42179 8.4667 10.6 8.4667C11.7782 8.4667 12.7333 9.42182 12.7333 10.6Z" stroke="#666666" stroke-width="1.3"/>
</svg>
