<svg width="10" height="11" viewBox="0 0 10 11" fill="none" xmlns="http://www.w3.org/2000/svg">
<path d="M7.16743 2.83311C6.97393 3.03012 6.97677 3.34669 7.17378 3.54019C7.37078 3.73369 7.68735 3.73085 7.88086 3.53384L7.16743 2.83311ZM8.24982 1.33051C8.05632 1.1335 7.73975 1.13065 7.54274 1.32416C7.34573 1.51766 7.34289 1.83423 7.53639 2.03123L8.24982 1.33051ZM8.64329 3.15819C8.83679 3.3552 9.15336 3.35804 9.35036 3.16454C9.54737 2.97104 9.55021 2.65447 9.35671 2.45746L8.64329 3.15819ZM5.25691 4.52841C5.25691 4.25227 5.03305 4.02841 4.75691 4.02841C4.48076 4.02841 4.25691 4.25227 4.25691 4.52841H5.25691ZM4.25691 6.04789C4.25691 6.32403 4.48076 6.54789 4.75691 6.54789C5.03305 6.54789 5.25691 6.32403 5.25691 6.04789H4.25691ZM3.65193 0.5C3.37579 0.5 3.15193 0.723858 3.15193 1C3.15193 1.27614 3.37579 1.5 3.65193 1.5V0.5ZM5.86188 1.5C6.13802 1.5 6.36188 1.27614 6.36188 1C6.36188 0.723858 6.13802 0.5 5.86188 0.5V1.5ZM7.88086 3.53384L8.80327 2.59471L8.08984 1.89398L7.16743 2.83311L7.88086 3.53384ZM7.53639 2.03123L8.08984 2.59471L8.80327 1.89398L8.24982 1.33051L7.53639 2.03123ZM8.08984 2.59471L8.64329 3.15819L9.35671 2.45746L8.80327 1.89398L8.08984 2.59471ZM4.25691 4.52841V6.04789H5.25691V4.52841H4.25691ZM3.65193 1.5H5.86188V0.5H3.65193V1.5ZM8.01381 6.14286C8.01381 8.00945 6.54332 9.5 4.75691 9.5V10.5C7.12026 10.5 9.01381 8.53675 9.01381 6.14286H8.01381ZM4.75691 9.5C2.9705 9.5 1.5 8.00945 1.5 6.14286H0.5C0.5 8.53675 2.39355 10.5 4.75691 10.5V9.5ZM1.5 6.14286C1.5 4.27627 2.9705 2.78571 4.75691 2.78571V1.78571C2.39355 1.78571 0.5 3.74897 0.5 6.14286H1.5ZM4.75691 2.78571C6.54332 2.78571 8.01381 4.27627 8.01381 6.14286H9.01381C9.01381 3.74897 7.12026 1.78571 4.75691 1.78571V2.78571Z" fill="#1F1F1F"/>
</svg>
