<svg width="98" height="44" viewBox="0 0 98 44" fill="none" xmlns="http://www.w3.org/2000/svg">
<path d="M28.6773 36.136V39.784C28.6773 41.8 27.4773 43.144 25.7013 43.144H19.1253C17.3013 43.144 16.1013 41.8 16.1013 39.784V36.136H3.18931C1.41331 36.136 0.165313 34.792 0.165313 32.776V28.36C0.165313 26.344 0.645313 23.752 1.31731 21.88L8.13331 3.64C8.80531 1.768 10.4853 0.519998 12.2613 0.519998H25.7013C27.4773 0.519998 28.6773 1.864 28.6773 3.88V25H29.0133C30.8373 25 32.0373 26.344 32.0373 28.36V32.776C32.0373 34.792 30.8373 36.136 29.0133 36.136H28.6773ZM12.3573 25H16.5333V13.048L12.3573 25ZM63.3138 10.552V33.112C63.3138 39.832 59.7138 43.384 53.8098 43.384H43.2498C37.3458 43.384 33.6978 39.832 33.6978 33.112V10.552C33.6978 3.832 37.3458 0.279998 43.2498 0.279998H53.8098C59.7138 0.279998 63.3138 3.832 63.3138 10.552ZM46.6098 31.72H49.9218C51.4578 25.48 51.5538 18.472 50.1138 11.944H46.6098C48.0498 18.376 47.9538 25.432 46.6098 31.72ZM93.9742 36.136V39.784C93.9742 41.8 92.7742 43.144 90.9982 43.144H84.4222C82.5982 43.144 81.3982 41.8 81.3982 39.784V36.136H68.4862C66.7102 36.136 65.4622 34.792 65.4622 32.776V28.36C65.4622 26.344 65.9422 23.752 66.6142 21.88L73.4302 3.64C74.1022 1.768 75.7822 0.519998 77.5582 0.519998H90.9982C92.7742 0.519998 93.9742 1.864 93.9742 3.88V25H94.3102C96.1342 25 97.3342 26.344 97.3342 28.36V32.776C97.3342 34.792 96.1342 36.136 94.3102 36.136H93.9742ZM77.6542 25H81.8302V13.048L77.6542 25Z" fill="#FF6740"/>
</svg>
