<svg width="375" height="58" viewBox="0 0 375 58" fill="none" xmlns="http://www.w3.org/2000/svg">
<g clip-path="url(#clip0_36_6080)">
<path d="M57.4385 39.2393C56.5361 39.2393 55.7682 38.9954 55.1348 38.5078C54.5013 38.0156 54.1117 37.3639 53.9658 36.5527H55.7227C55.8366 36.9264 56.0462 37.2227 56.3516 37.4414C56.6615 37.6556 57.0283 37.7627 57.4521 37.7627C58.1722 37.7627 58.735 37.446 59.1406 36.8125C59.5462 36.1745 59.749 35.2904 59.749 34.1602H59.6875H59.6533H59.6328C59.4004 34.6296 59.0609 34.9941 58.6143 35.2539C58.1676 35.5091 57.6549 35.6367 57.0762 35.6367C56.1374 35.6367 55.3604 35.3268 54.7451 34.707C54.1344 34.0872 53.8291 33.3034 53.8291 32.3555C53.8291 31.3438 54.1709 30.5143 54.8545 29.8672C55.5426 29.2155 56.4222 28.8896 57.4932 28.8896C58.2132 28.8896 58.8512 29.056 59.4072 29.3887C59.9632 29.7214 60.4076 30.2044 60.7402 30.8379C61.2051 31.6628 61.4375 32.7018 61.4375 33.9551C61.4375 35.6139 61.0843 36.9105 60.3779 37.8447C59.6715 38.7744 58.6917 39.2393 57.4385 39.2393ZM56.1055 33.6953C56.4701 34.0553 56.9349 34.2354 57.5 34.2354C58.0651 34.2354 58.5322 34.0553 58.9014 33.6953C59.2705 33.3353 59.4551 32.8796 59.4551 32.3281C59.4551 31.7721 59.2682 31.305 58.8945 30.9268C58.5208 30.5485 58.0583 30.3594 57.5068 30.3594C56.9554 30.3594 56.4928 30.5462 56.1191 30.9199C55.7454 31.2891 55.5586 31.7493 55.5586 32.3008C55.5586 32.8659 55.7409 33.3307 56.1055 33.6953ZM64.5342 37.9541C64.2152 37.9541 63.9531 37.8516 63.748 37.6465C63.543 37.4414 63.4404 37.1839 63.4404 36.874C63.4404 36.5596 63.543 36.3021 63.748 36.1016C63.9531 35.8965 64.2152 35.7939 64.5342 35.7939C64.8577 35.7939 65.1198 35.8965 65.3203 36.1016C65.5254 36.3021 65.6279 36.5596 65.6279 36.874C65.6279 37.1839 65.5254 37.4414 65.3203 37.6465C65.1198 37.8516 64.8577 37.9541 64.5342 37.9541ZM64.5342 32.8271C64.2152 32.8271 63.9531 32.7269 63.748 32.5264C63.543 32.3213 63.4404 32.0638 63.4404 31.7539C63.4404 31.4395 63.543 31.182 63.748 30.9814C63.9531 30.7764 64.2152 30.6738 64.5342 30.6738C64.8577 30.6738 65.1198 30.7764 65.3203 30.9814C65.5254 31.182 65.6279 31.4395 65.6279 31.7539C65.6279 32.0638 65.5254 32.3213 65.3203 32.5264C65.1198 32.7269 64.8577 32.8271 64.5342 32.8271ZM72.4434 39V37.1611H67.624V35.5889C68.4261 34.1123 69.766 31.9613 71.6436 29.1357H74.1318V35.6709H75.4648V37.1611H74.1318V39H72.4434ZM69.2578 35.6094V35.7119H72.4707V30.5713H72.375C71.3086 32.1481 70.2695 33.8275 69.2578 35.6094ZM79.5049 39V30.9131H79.3887L76.9346 32.6357V30.9404L79.5117 29.1357H81.2686V39H79.5049Z" fill="black"/>
</g>
<g clip-path="url(#clip1_36_6080)">
<rect x="316.5" y="27.83" width="21" height="10.33" rx="2.17" stroke="black" stroke-opacity="0.4"/>
<rect x="318" y="29.33" width="18" height="7.33" rx="1.33" fill="black"/>
<path fill-rule="evenodd" clip-rule="evenodd" d="M339 34.9962C339.781 34.6694 340.33 33.8978 340.33 32.9981C340.33 32.0984 339.781 31.3268 339 31V34.9962Z" fill="black" fill-opacity="0.4"/>
</g>
<path d="M303.327 29.6073C305.543 29.6074 307.674 30.4588 309.28 31.9856C309.401 32.1035 309.594 32.102 309.713 31.9823L310.869 30.8156C310.93 30.7549 310.963 30.6726 310.963 30.5871C310.962 30.5015 310.928 30.4196 310.867 30.3596C306.652 26.3201 300.002 26.3201 295.787 30.3596C295.726 30.4196 295.691 30.5014 295.69 30.587C295.69 30.6726 295.723 30.7549 295.784 30.8156L296.94 31.9823C297.059 32.1022 297.253 32.1037 297.373 31.9856C298.98 30.4587 301.111 29.6073 303.327 29.6073ZM303.327 33.403C304.545 33.4029 305.719 33.8554 306.621 34.6726C306.743 34.7886 306.935 34.7861 307.054 34.667L308.209 33.5003C308.27 33.4391 308.304 33.3561 308.303 33.2698C308.302 33.1835 308.266 33.1012 308.204 33.0413C305.456 30.4849 301.2 30.4849 298.452 33.0413C298.39 33.1012 298.355 33.1836 298.354 33.2699C298.353 33.3562 298.387 33.4392 298.448 33.5003L299.602 34.667C299.721 34.7861 299.913 34.7886 300.035 34.6726C300.937 33.8559 302.11 33.4035 303.327 33.403ZM305.546 36.1873C305.608 36.1267 305.642 36.0433 305.64 35.9568C305.638 35.8703 305.601 35.7883 305.537 35.7303C304.261 34.6514 302.393 34.6514 301.117 35.7303C301.053 35.7883 301.016 35.8702 301.014 35.9567C301.012 36.0432 301.046 36.1266 301.108 36.1873L303.105 38.203C303.164 38.2622 303.244 38.2955 303.327 38.2955C303.41 38.2955 303.49 38.2622 303.549 38.203L305.546 36.1873Z" fill="black"/>
<path d="M274.67 34.3367H275.67C276.222 34.3367 276.67 34.7844 276.67 35.3367V37.3367C276.67 37.889 276.222 38.3367 275.67 38.3367H274.67C274.118 38.3367 273.67 37.889 273.67 37.3367V35.3367C273.67 34.7844 274.118 34.3367 274.67 34.3367ZM279.337 32.3367H280.337C280.889 32.3367 281.337 32.7844 281.337 33.3367V37.3367C281.337 37.889 280.889 38.3367 280.337 38.3367H279.337C278.784 38.3367 278.337 37.889 278.337 37.3367V33.3367C278.337 32.7844 278.784 32.3367 279.337 32.3367ZM284.003 30.0034H285.003C285.556 30.0034 286.003 30.4511 286.003 31.0034V37.3367C286.003 37.889 285.556 38.3367 285.003 38.3367H284.003C283.451 38.3367 283.003 37.889 283.003 37.3367V31.0034C283.003 30.4511 283.451 30.0034 284.003 30.0034ZM288.67 27.67H289.67C290.222 27.67 290.67 28.1178 290.67 28.67V37.3367C290.67 37.889 290.222 38.3367 289.67 38.3367H288.67C288.118 38.3367 287.67 37.889 287.67 37.3367V28.67C287.67 28.1178 288.118 27.67 288.67 27.67Z" fill="black"/>
<defs>
<clipPath id="clip0_36_6080">
<rect width="54" height="28" fill="white" transform="translate(36 19)"/>
</clipPath>
<clipPath id="clip1_36_6080">
<rect width="25" height="12" fill="white" transform="translate(316 27)"/>
</clipPath>
</defs>
</svg>
